<?xml version="1.0" encoding="utf-8"?>
<!-- Generator: Adobe Illustrator 28.0.0, SVG Export Plug-In . SVG Version: 6.00 Build 0)  -->
<svg version="1.1" id="Layer_1" xmlns="http://www.w3.org/2000/svg" xmlns:xlink="http://www.w3.org/1999/xlink" x="0px" y="0px"
	 viewBox="0 0 512 512" style="enable-background:new 0 0 512 512;" xml:space="preserve">
<style type="text/css">
	.st0{fill:#E60024;}
</style>
<path class="st0" d="M398,177.4c-4.8-15.1-18.1-24.8-33.9-24.8H147.9c-15.8,0-29.1,9.7-33.9,24.8L90.8,251c-0.2,0.6-0.3,1.2-0.3,1.8
	v31.9c0,14.2,7.9,26.6,19.5,33.1v158.1c0,3.3,2.7,6,6,6h280.1c3.3,0,6-2.7,6-6V317.8c11.6-6.5,19.5-18.9,19.5-33.1v-31.9
	c0-0.6-0.1-1.2-0.3-1.8L398,177.4z M125.5,181c3.2-10,12-16.4,22.4-16.4h216.1c10.5,0,19.3,6.4,22.4,16.4l20.8,65.8H104.7L125.5,181
	z M213,469.9h-48.9v-72.3H213V469.9z M390.1,469.9H225v-78.3c0-3.3-2.7-6-6-6h-60.9c-3.3,0-6,2.7-6,6v78.3H122V322.1
	c2.1,0.4,4.2,0.6,6.4,0.6c13.4,0,25.1-7,31.9-17.5c6.8,10.5,18.5,17.5,31.9,17.5s25.1-7,31.9-17.5c6.8,10.5,18.5,17.5,31.9,17.5
	s25.1-7,31.9-17.5c6.8,10.5,18.5,17.5,31.9,17.5s25.1-7,31.9-17.5c6.8,10.5,18.5,17.5,31.9,17.5c2.2,0,4.4-0.2,6.5-0.6L390.1,469.9
	L390.1,469.9z M383.6,310.6c-14.3,0-25.9-11.6-25.9-25.9c0-3.3-2.7-6-6-6s-6,2.7-6,6c0,14.3-11.6,25.9-25.9,25.9
	s-25.9-11.6-25.9-25.9c0-3.3-2.7-6-6-6s-6,2.7-6,6c0,14.3-11.6,25.9-25.9,25.9s-25.9-11.6-25.9-25.9c0-3.3-2.7-6-6-6s-6,2.7-6,6
	c0,14.3-11.6,25.9-25.9,25.9s-25.9-11.6-25.9-25.9c0-3.3-2.7-6-6-6s-6,2.7-6,6c0,14.3-11.6,25.9-25.9,25.9s-25.9-11.6-25.9-25.9
	v-25.9h307v25.9C409.5,299,397.9,310.6,383.6,310.6L383.6,310.6z M356,346.5h-95.3c-3.3,0-6,2.7-6,6v54.7c0,3.3,2.7,6,6,6H356
	c3.3,0,6-2.7,6-6v-54.7C362,349.2,359.3,346.5,356,346.5z M350,401.2h-83.3v-42.7H350V401.2z M230.6,58.9l20.7-26.5
	c1.1-1.5,2.9-2.3,4.7-2.3c1.8,0,3.6,0.9,4.7,2.3l20.7,26.5c2,2.6,1.6,6.4-1,8.4c-2.6,2-6.4,1.6-8.4-1l-10-12.7v64.3c0,3.3-2.7,6-6,6
	s-6-2.7-6-6V53.5l-10,12.8c-1.2,1.5-2.9,2.3-4.7,2.3c-1.3,0-2.6-0.4-3.7-1.3C229,65.2,228.6,61.5,230.6,58.9z M83.1,187
	c2.3,2.3,2.3,6.1,0,8.5c-1.2,1.2-2.7,1.8-4.2,1.8s-3.1-0.6-4.2-1.8L29.1,150l2,16.1c0.4,3.3-1.9,6.3-5.2,6.7c-0.2,0-0.5,0.1-0.7,0.1
	c-3,0-5.6-2.2-5.9-5.3l-4.1-33.3c-0.2-1.8,0.4-3.7,1.7-5c1.3-1.3,3.1-1.9,5-1.7l33.3,4.1c3.3,0.4,5.6,3.4,5.2,6.7
	c-0.4,3.3-3.4,5.6-6.7,5.2l-16.1-2L83.1,187z M497,134.1l-4.1,33.4c-0.4,3-3,5.3-6,5.3c-0.2,0-0.5,0-0.7-0.1
	c-3.3-0.4-5.6-3.4-5.2-6.7l2-16.1l-45.5,45.5c-1.2,1.2-2.7,1.8-4.2,1.8s-3.1-0.6-4.2-1.8c-2.3-2.3-2.3-6.1,0-8.5l45.5-45.5l-16.1,2
	c-3.3,0.4-6.3-1.9-6.7-5.2c-0.4-3.3,1.9-6.3,5.2-6.7l33.4-4.1c1.8-0.2,3.7,0.4,5,1.7C496.6,130.5,497.2,132.3,497,134.1L497,134.1z"
	/>
</svg>
